<?xml version="1.0" encoding="UTF-8"?>
<svg xmlns="http://www.w3.org/2000/svg" xmlns:xlink="http://www.w3.org/1999/xlink" width="18pt" height="16pt" viewBox="0 0 18 16" version="1.1">
<g id="surface1">
<path style=" stroke:none;fill-rule:nonzero;fill:rgb(0%,0%,0%);fill-opacity:1;" d="M 13.089844 11.851562 L 13.710938 11.359375 C 13.507812 11.355469 13.332031 11.207031 13.296875 11.003906 C 13.261719 10.820312 13.230469 10.644531 13.203125 10.476562 L 12.375 11.136719 L 12.945312 12.40625 Z M 13.089844 11.851562 "/>
<path style=" stroke:none;fill-rule:nonzero;fill:rgb(0%,0%,0%);fill-opacity:1;" d="M 13.390625 10.984375 C 13.417969 11.148438 13.558594 11.261719 13.714844 11.261719 C 13.734375 11.261719 13.757812 11.257812 13.777344 11.253906 C 13.957031 11.222656 14.078125 11.042969 14.042969 10.859375 C 13.792969 9.5 13.703125 8.652344 13.683594 8.132812 L 13.777344 8.136719 C 13.800781 8.652344 13.890625 9.492188 14.136719 10.84375 C 14.148438 10.902344 14.148438 10.964844 14.132812 11.019531 L 15.222656 10.152344 C 15.316406 10.078125 15.378906 9.976562 15.402344 9.867188 C 15.402344 9.867188 15.402344 9.867188 15.40625 9.867188 L 17.046875 13.527344 C 17.128906 13.714844 17.3125 13.824219 17.5 13.824219 C 17.570312 13.824219 17.640625 13.808594 17.707031 13.777344 C 17.957031 13.664062 18.070312 13.363281 17.953125 13.109375 L 15.128906 6.804688 C 15.117188 6.785156 15.109375 6.765625 15.097656 6.75 C 15.128906 6.496094 15.148438 6.136719 15.085938 5.710938 C 14.980469 4.972656 14.605469 3.886719 13.429688 2.90625 C 13.285156 2.789062 13.078125 2.808594 12.960938 2.953125 C 12.84375 3.097656 12.863281 3.3125 13.007812 3.429688 C 13.894531 4.167969 14.257812 4.957031 14.394531 5.597656 C 14.53125 5.753906 14.625 5.949219 14.652344 6.167969 C 14.726562 6.742188 14.324219 7.265625 13.761719 7.339844 C 13.71875 7.34375 13.671875 7.347656 13.628906 7.347656 C 13.429688 7.347656 13.242188 7.285156 13.082031 7.183594 C 13.042969 7.324219 13.019531 7.507812 13.011719 7.746094 C 13.011719 7.855469 13.011719 7.972656 13.015625 8.101562 C 13.039062 8.789062 13.164062 9.757812 13.390625 10.984375 Z M 13.390625 10.984375 "/>
<path style=" stroke:none;fill-rule:nonzero;fill:rgb(0%,0%,0%);fill-opacity:1;" d="M 14.496094 5.9375 C 14.296875 5.453125 13.75 5.222656 13.273438 5.421875 C 12.796875 5.621094 12.570312 6.175781 12.765625 6.660156 C 12.964844 7.144531 13.511719 7.375 13.988281 7.175781 C 14.464844 6.976562 14.691406 6.421875 14.496094 5.9375 Z M 14.496094 5.9375 "/>
<path style=" stroke:none;fill-rule:nonzero;fill:rgb(0%,0%,0%);fill-opacity:1;" d="M 0.371094 13.808594 C 0.414062 13.820312 0.457031 13.824219 0.5 13.824219 C 0.71875 13.824219 0.921875 13.675781 0.980469 13.449219 L 1.394531 11.851562 L 2.019531 11.359375 C 1.816406 11.355469 1.640625 11.207031 1.601562 11.003906 C 1.570312 10.820312 1.539062 10.644531 1.507812 10.476562 L 0.648438 11.160156 C 0.5625 11.230469 0.5 11.324219 0.472656 11.429688 L 0.015625 13.1875 C -0.0546875 13.460938 0.105469 13.738281 0.371094 13.808594 Z M 0.371094 13.808594 "/>
<path style=" stroke:none;fill-rule:nonzero;fill:rgb(0%,0%,0%);fill-opacity:1;" d="M 1.695312 10.984375 C 1.726562 11.148438 1.867188 11.261719 2.023438 11.261719 C 2.042969 11.261719 2.0625 11.257812 2.085938 11.253906 C 2.265625 11.222656 2.382812 11.042969 2.351562 10.859375 C 2.101562 9.5 2.011719 8.652344 1.992188 8.132812 L 2.085938 8.136719 C 2.109375 8.652344 2.195312 9.492188 2.445312 10.84375 C 2.457031 10.902344 2.453125 10.964844 2.441406 11.019531 L 3.53125 10.152344 C 3.625 10.078125 3.683594 9.976562 3.710938 9.867188 L 4.976562 12.6875 L 5.042969 12.433594 C 5.101562 12.214844 5.226562 12.019531 5.402344 11.878906 L 5.628906 11.699219 L 3.433594 6.804688 C 3.425781 6.785156 3.414062 6.765625 3.402344 6.75 C 3.4375 6.496094 3.457031 6.136719 3.394531 5.710938 C 3.289062 4.972656 2.914062 3.886719 1.734375 2.90625 C 1.59375 2.789062 1.382812 2.808594 1.269531 2.953125 C 1.152344 3.097656 1.171875 3.3125 1.3125 3.429688 C 2.199219 4.167969 2.566406 4.957031 2.703125 5.597656 C 2.839844 5.753906 2.933594 5.949219 2.960938 6.167969 C 3.03125 6.742188 2.632812 7.265625 2.066406 7.339844 C 2.023438 7.34375 1.980469 7.347656 1.9375 7.347656 C 1.738281 7.347656 1.546875 7.285156 1.390625 7.183594 C 1.347656 7.324219 1.328125 7.507812 1.320312 7.746094 C 1.316406 7.855469 1.320312 7.972656 1.324219 8.101562 C 1.347656 8.789062 1.472656 9.757812 1.695312 10.984375 Z M 1.695312 10.984375 "/>
<path style=" stroke:none;fill-rule:nonzero;fill:rgb(0%,0%,0%);fill-opacity:1;" d="M 2.464844 5.511719 C 2.035156 5.21875 1.453125 5.332031 1.164062 5.765625 C 0.875 6.199219 0.984375 6.792969 1.414062 7.085938 C 1.839844 7.378906 2.421875 7.265625 2.714844 6.832031 C 3.003906 6.398438 2.890625 5.808594 2.464844 5.511719 Z M 2.464844 5.511719 "/>
<path style=" stroke:none;fill-rule:nonzero;fill:rgb(0%,0%,0%);fill-opacity:1;" d="M 8.953125 4.859375 C 9.058594 5.691406 8.472656 6.457031 7.652344 6.5625 C 7.589844 6.570312 7.527344 6.574219 7.464844 6.574219 C 7.171875 6.574219 6.898438 6.488281 6.667969 6.339844 C 6.609375 6.539062 6.574219 6.808594 6.566406 7.152344 C 6.542969 8.164062 6.726562 9.75 7.113281 11.863281 C 7.15625 12.101562 7.359375 12.265625 7.589844 12.265625 C 7.617188 12.265625 7.648438 12.261719 7.679688 12.257812 C 7.941406 12.207031 8.113281 11.953125 8.066406 11.683594 C 7.703125 9.703125 7.574219 8.472656 7.539062 7.71875 L 7.679688 7.722656 C 7.710938 8.472656 7.839844 9.695312 8.203125 11.660156 C 8.21875 11.746094 8.214844 11.832031 8.195312 11.917969 L 9.78125 10.652344 C 9.917969 10.546875 10.003906 10.398438 10.042969 10.242188 C 10.042969 10.242188 10.042969 10.242188 10.046875 10.242188 L 12.433594 15.5625 C 12.554688 15.835938 12.816406 15.996094 13.09375 15.996094 C 13.195312 15.996094 13.296875 15.972656 13.394531 15.929688 C 13.757812 15.761719 13.921875 15.324219 13.753906 14.953125 L 9.640625 5.785156 C 9.628906 5.757812 9.613281 5.730469 9.597656 5.703125 C 9.644531 5.339844 9.671875 4.8125 9.582031 4.191406 C 9.425781 3.121094 8.882812 1.542969 7.171875 0.117188 C 6.964844 -0.0546875 6.660156 -0.0234375 6.488281 0.183594 C 6.320312 0.394531 6.351562 0.703125 6.558594 0.875 C 7.847656 1.949219 8.378906 3.097656 8.574219 4.03125 C 8.777344 4.253906 8.914062 4.539062 8.953125 4.859375 Z M 8.953125 4.859375 "/>
<path style=" stroke:none;fill-rule:nonzero;fill:rgb(0%,0%,0%);fill-opacity:1;" d="M 4.671875 15.070312 C 4.570312 15.464844 4.800781 15.867188 5.1875 15.96875 C 5.25 15.988281 5.3125 15.996094 5.371094 15.996094 C 5.695312 15.996094 5.988281 15.777344 6.074219 15.445312 L 6.675781 13.128906 L 7.582031 12.40625 C 7.285156 12.402344 7.03125 12.1875 6.976562 11.890625 C 6.929688 11.625 6.882812 11.371094 6.84375 11.125 L 5.589844 12.121094 C 5.464844 12.21875 5.375 12.359375 5.335938 12.511719 Z M 4.671875 15.070312 "/>
<path style=" stroke:none;fill-rule:nonzero;fill:rgb(0%,0%,0%);fill-opacity:1;" d="M 8.628906 4.335938 C 8.238281 3.683594 7.402344 3.472656 6.761719 3.871094 C 6.117188 4.265625 5.910156 5.113281 6.300781 5.765625 C 6.691406 6.417969 7.527344 6.628906 8.167969 6.230469 C 8.8125 5.835938 9.019531 4.988281 8.628906 4.335938 Z M 8.628906 4.335938 "/>
</g>
</svg>
